<svg width="16" height="17" fill="none" xmlns="http://www.w3.org/2000/svg"><g clip-path="url(#a)"><g clip-path="url(#b)" fill="#000"><path d="M8 10.4a2 2 0 1 0 0-4 2 2 0 0 0 0 4Z"/><path d="M14.7 1.7c-.9-1-2-1.3-3.4-1.3H4.7A4.5 4.5 0 0 0 0 5v6.6c0 1.4.4 2.6 1.4 3.4.9.9 2 1.3 3.3 1.3h6.6c1.4 0 2.6-.4 3.4-1.3a5 5 0 0 0 1.3-3.4V5c0-1.4-.4-2.6-1.3-3.4ZM8 12.5a4.1 4.1 0 0 1-4.1-4.1C3.9 6 5.8 4.3 8 4.3c2.2 0 4.1 1.8 4.1 4 0 2.4-1.9 4.2-4.1 4.2ZM12.6 5c-.7 0-1.3-.5-1.3-1.3s.5-1.3 1.3-1.3c.7 0 1.3.6 1.3 1.3 0 .7-.6 1.3-1.3 1.3Z"/></g></g><defs><clipPath id="a"><path fill="#fff" transform="rotate(-180 8 8.2)" d="M0 0h16v16H0z"/></clipPath><clipPath id="b"><path fill="#fff" transform="translate(0 .4)" d="M0 0h16v16H0z"/></clipPath></defs></svg>