<svg width="16" height="15" fill="none" xmlns="http://www.w3.org/2000/svg"><g clip-path="url(#a)"><g clip-path="url(#b)"><path d="M10.3.5a3 3 0 0 1 3.5 1.1l1.8-.6a2 2 0 0 1-.9 1.6c.8.2 1.3-.4 1.3-.4-.1.9-1 1.7-1.5 1.9-.2 6.3-3 10.4-9.5 10.3h-.4c-.3 0-4-.4-4.6-1.8 2.1.2 3.6-.4 4.4-1.1-.9-.3-2.6-.4-2.8-2.8.3.2.5.3 1.2.2C1.6 8 .3 7.4.4 5.4c.3.3 1 .5 1.3.4-.6-.2-2-3.1-.8-4.6C2.6 3 4.4 4.6 7.6 4.7c.2-2.1 1-3.5 2.7-4.2Z" fill="#000"/></g></g><defs><clipPath id="a"><path fill="#fff" transform="rotate(-180 8 7.2)" d="M0 0h16v14H0z"/></clipPath><clipPath id="b"><path fill="#fff" transform="translate(0 .4)" d="M0 0h16v14H0z"/></clipPath></defs></svg>